<?xml version="1.0" ?><svg style="enable-background:new 0 0 32 32;" version="1.1" viewBox="0 0 32 32" xml:space="preserve" xmlns="http://www.w3.org/2000/svg" xmlns:xlink="http://www.w3.org/1999/xlink"><style type="text/css">
	.st0{fill:#6D6D6D;}
</style><g id="row_9-10"/><g id="row_7-8"><path class="st0" d="M28.1,9.9C29.5,8.9,30.3,7,29.9,5c-0.4-1.9-1.9-3.5-3.8-3.9c-2.2-0.5-4.3,0.6-5.3,2.3   c-1.5-0.6-3.1-0.9-4.8-0.9s-3.3,0.3-4.8,0.9c-1.1-1.7-3.1-2.7-5.3-2.3C4,1.5,2.4,3.1,2.1,5C1.7,7,2.5,8.9,3.9,9.9   c-0.9,1.7-1.4,3.6-1.4,5.7c0.6-0.3,1.1-0.6,1.7-0.9C4.1,15.4,4,16.2,4,17c0,2,0.5,3.8,1.3,5.5c0.8-0.4,1.7-0.8,2.5-1.1   c0.5-0.2,1,0.3,0.9,0.8l0,0c-0.2,0.9-0.2,1.8,0,2.7l0.1,0.2c0.3,1.3,0.8,2.5,1.7,3.5c3,3.3,8.1,3.3,11.1,0c0.9-1,1.4-2.2,1.7-3.5   l0.1-0.2c0.2-0.9,0.2-1.8,0-2.7l0,0c-0.1-0.5,0.4-1,0.9-0.8c0.9,0.3,1.7,0.7,2.5,1.1C27.5,20.8,28,19,28,17c0-0.8-0.1-1.6-0.2-2.3   c0.6,0.3,1.2,0.6,1.7,0.9C29.4,13.6,28.9,11.7,28.1,9.9z M5.8,8.8C4.7,8.3,4,7.2,4,6c0-1.7,1.3-3,3-3c1.3,0,2.5,0.9,2.9,2.1   C8.3,6,6.9,7.3,5.8,8.8z M11.2,18.9c-0.4-0.1-0.7-0.3-1-0.6c-0.5-0.5-0.7-1.1-0.7-1.8C9.9,16.2,10.4,16,11,16c1.1,0,2,0.7,2.3,1.6   L11.2,18.9z M21.8,18.3c-0.3,0.3-0.6,0.5-1,0.6l-2.1-1.3C19,16.7,19.9,16,21,16c0.6,0,1.1,0.2,1.5,0.5   C22.5,17.1,22.3,17.8,21.8,18.3z M26.2,8.8c-1.1-1.5-2.4-2.7-4.1-3.6C22.5,3.9,23.7,3,25,3c1.7,0,3,1.3,3,3   C28,7.2,27.3,8.3,26.2,8.8z" id="bears"/></g><g id="row_5-6"/><g id="row_3-4"/><g id="row_1-2"/></svg>