<?xml version="1.0" ?><svg style="enable-background:new 0 0 32 32;" version="1.1" viewBox="0 0 32 32" xml:space="preserve" xmlns="http://www.w3.org/2000/svg" xmlns:xlink="http://www.w3.org/1999/xlink"><style type="text/css">
	.st0{fill:#6D6D6D;}
</style><g id="row_9-10"/><g id="row_7-8"><path class="st0" d="M22.1,13.5c0.9-0.1,1.7-0.2,2.6-0.3c1-0.1,2-0.2,2.9-0.5c1.8-0.7,2.9-2.5,2.8-4.4   c-0.1-1.9-1.5-3.5-3.4-3.9c-0.9-0.2-1.7-0.4-2.2-1.3c-0.5-1-0.2-2,0.2-3c-0.9,1-1.6,2.1-1.2,3.5c0.4,1.5,1.5,2.2,2.8,2.8   c0.6,0.2,1.1,1.1,1,1.9c-0.2,1.3-1.3,1.3-2.3,1.3c-1.3,0-2.5,0.1-3.7,0.1C21.1,9.3,20.6,9,20,9h-8c-0.6,0-1.1,0.3-1.5,0.7   c-0.1,0-0.1,0-0.2,0C9.2,9.6,8.1,9.6,7,9.5c-0.7,0-1.5,0.1-2.1-0.4c-1.2-1.1-0.2-2.5,0.9-3c0.9-0.4,1.7-1,2.1-1.9   c0.8-1.6,0.1-3-1-4.2c0.4,1.2,0.8,2.3-0.1,3.4C6.5,3.9,5.8,4.1,5.5,4.2C2.8,4.7,0.9,7.1,1.8,9.9c0.8,2.3,2.8,3,5,3.2   c1,0.1,2,0.3,3.1,0.4c-2.4,0.8-4.9,1.1-7.3,0.9C3.4,16.5,5.5,18,8,18c0.9,0,1.7-0.2,2.4-0.5l1,6.3c-2.7,1.6-2.3,6,1.1,6.8   c1.1,0.3,2.3,0.4,3.5,0.4s2.4-0.1,3.5-0.4c3.4-0.8,3.8-5.2,1.1-6.8l1-6.3c0.7,0.3,1.6,0.5,2.4,0.5c2.5,0,4.6-1.5,5.5-3.6   C27,14.6,24.5,14.3,22.1,13.5z" id="bulls"/></g><g id="row_5-6"/><g id="row_3-4"/><g id="row_1-2"/></svg>